<svg id="svg" version="1.1" xmlns="http://www.w3.org/2000/svg" xmlns:xlink="http://www.w3.org/1999/xlink" width="400" height="400" viewBox="0, 0, 400,400"><g id="svgg"><path id="path0" d="M323.300 12.276 C 323.898 12.432,324.000 12.958,324.000 15.885 C 324.000 19.515,323.649 20.247,321.800 20.472 C 321.360 20.526,324.870 20.682,329.600 20.820 C 338.614 21.082,340.162 21.301,343.352 22.769 C 345.520 23.767,350.400 28.319,350.400 29.344 C 350.400 29.705,350.580 30.000,350.800 30.000 C 351.020 30.000,351.200 30.360,351.200 30.800 C 351.200 31.240,351.380 31.600,351.600 31.600 C 351.820 31.600,352.000 32.140,352.000 32.800 C 352.000 33.460,352.180 34.000,352.400 34.000 C 352.663 34.000,352.800 42.867,352.800 59.800 L 352.800 85.600 338.876 85.600 C 327.253 85.600,324.825 85.697,324.176 86.187 C 323.749 86.510,323.580 86.780,323.800 86.787 C 324.051 86.794,324.126 88.130,324.000 90.381 L 323.800 93.963 337.738 93.991 C 354.054 94.023,352.800 93.644,352.800 98.548 C 352.800 100.421,352.980 102.064,353.200 102.200 C 353.420 102.336,353.600 102.809,353.600 103.252 C 353.600 104.999,356.604 106.291,358.818 105.496 C 360.350 104.946,361.200 104.280,361.200 103.629 C 361.200 103.393,361.380 103.200,361.600 103.200 C 361.864 103.200,362.000 91.275,362.000 68.224 C 362.000 45.337,361.862 33.162,361.600 33.000 C 361.380 32.864,361.200 32.131,361.200 31.371 C 361.200 30.611,361.020 29.632,360.800 29.195 C 360.580 28.758,360.220 28.042,360.000 27.605 C 359.780 27.168,359.600 26.538,359.600 26.205 C 359.600 25.872,359.447 25.600,359.261 25.600 C 359.074 25.600,358.597 24.880,358.200 24.000 C 357.803 23.120,357.326 22.400,357.139 22.400 C 356.953 22.400,356.800 22.142,356.800 21.826 C 356.800 21.130,352.546 16.800,351.862 16.800 C 351.595 16.800,351.117 16.440,350.800 16.000 C 350.483 15.560,349.903 15.200,349.512 15.200 C 349.120 15.200,348.800 15.020,348.800 14.800 C 348.800 14.580,348.440 14.400,348.000 14.400 C 347.560 14.400,347.200 14.264,347.200 14.097 C 347.200 13.731,344.333 12.800,343.206 12.800 C 342.763 12.800,342.400 12.620,342.400 12.400 C 342.400 12.143,338.864 12.017,332.500 12.046 C 327.055 12.072,322.915 12.175,323.300 12.276 M324.245 37.674 C 324.356 37.853,324.302 38.000,324.124 37.999 C 323.790 37.998,323.862 43.902,324.216 45.500 C 324.358 46.140,324.704 46.400,325.413 46.400 C 327.156 46.400,329.683 48.301,329.933 49.801 C 330.007 50.240,330.232 50.771,330.433 50.980 C 332.088 52.695,329.353 58.345,326.525 59.055 C 326.016 59.182,325.600 59.430,325.600 59.606 C 325.600 59.781,325.240 59.831,324.800 59.716 C 323.887 59.477,323.567 66.043,324.414 67.626 C 324.865 68.469,329.200 68.808,329.200 68.000 C 329.200 67.780,329.740 67.600,330.400 67.600 C 331.060 67.600,331.600 67.420,331.600 67.200 C 331.600 66.980,331.920 66.800,332.312 66.800 C 332.703 66.800,333.283 66.440,333.600 66.000 C 333.917 65.560,334.407 65.200,334.688 65.200 C 334.970 65.200,335.200 65.058,335.200 64.883 C 335.200 64.709,335.830 63.899,336.600 63.082 C 337.370 62.266,338.000 61.329,338.000 60.999 C 338.000 60.670,338.180 60.400,338.400 60.400 C 338.620 60.400,338.800 60.051,338.800 59.624 C 338.800 59.197,338.980 58.736,339.200 58.600 C 339.420 58.464,339.600 57.791,339.600 57.105 C 339.600 56.418,339.812 55.271,340.070 54.556 C 340.744 52.694,339.405 46.503,337.831 44.200 C 336.559 42.339,333.689 39.600,333.011 39.600 C 332.675 39.600,332.400 39.420,332.400 39.200 C 332.400 38.980,332.040 38.800,331.600 38.800 C 331.160 38.800,330.800 38.620,330.800 38.400 C 330.800 38.180,330.260 38.000,329.600 38.000 C 328.910 38.000,328.397 37.788,328.394 37.500 C 328.390 37.167,328.258 37.200,328.000 37.600 C 327.723 38.028,327.610 38.052,327.606 37.682 C 327.602 37.322,327.056 37.191,325.822 37.255 C 324.844 37.306,324.135 37.494,324.245 37.674 M354.500 111.338 C 354.005 111.828,353.600 112.537,353.600 112.914 C 353.600 113.291,353.420 113.600,353.200 113.600 C 352.952 113.600,352.800 115.800,352.800 119.400 C 352.800 123.000,352.952 125.200,353.200 125.200 C 353.420 125.200,353.601 125.515,353.603 125.900 C 353.608 126.892,355.400 127.600,357.908 127.600 C 361.477 127.600,362.000 126.527,362.000 119.200 C 362.000 113.442,361.807 112.555,360.239 111.104 C 359.087 110.039,355.673 110.178,354.500 111.338 M356.000 133.600 C 356.000 133.820,355.722 134.000,355.382 134.000 C 355.042 134.000,354.322 134.442,353.782 134.982 L 352.800 135.964 352.800 250.982 C 352.800 327.394,352.666 366.000,352.400 366.000 C 352.180 366.000,352.000 366.540,352.000 367.200 C 352.000 367.860,351.820 368.400,351.600 368.400 C 351.380 368.400,351.200 368.760,351.200 369.200 C 351.200 369.640,351.020 370.000,350.800 370.000 C 350.580 370.000,350.400 370.297,350.400 370.660 C 350.400 372.704,342.462 378.400,339.612 378.400 C 338.971 378.400,338.336 378.580,338.200 378.800 C 338.049 379.045,334.909 379.200,330.115 379.200 C 322.422 379.200,322.294 379.214,323.139 379.947 C 323.914 380.619,324.000 381.096,324.000 384.732 L 324.000 388.771 325.900 388.740 C 326.945 388.722,328.060 388.504,328.377 388.254 C 328.829 387.898,328.883 387.917,328.629 388.340 C 328.367 388.774,328.464 388.794,329.125 388.440 C 329.578 388.198,330.939 388.000,332.150 388.000 C 333.362 388.000,334.464 387.820,334.600 387.600 C 334.736 387.380,335.546 387.200,336.400 387.200 C 337.254 387.200,338.064 387.020,338.200 386.800 C 338.336 386.580,338.966 386.400,339.600 386.400 C 340.234 386.400,340.864 386.220,341.000 386.000 C 341.136 385.780,341.676 385.600,342.200 385.600 C 342.724 385.600,343.264 385.420,343.400 385.200 C 343.536 384.980,344.087 384.800,344.624 384.800 C 345.161 384.800,345.600 384.620,345.600 384.400 C 345.600 384.180,345.960 384.000,346.400 384.000 C 346.840 384.000,347.200 383.820,347.200 383.600 C 347.200 383.380,347.560 383.200,348.000 383.200 C 348.440 383.200,348.800 383.020,348.800 382.800 C 348.800 382.580,349.120 382.400,349.512 382.400 C 349.903 382.400,350.483 382.040,350.800 381.600 C 351.117 381.160,351.583 380.800,351.835 380.800 C 352.712 380.800,356.658 376.584,357.825 374.400 C 358.471 373.190,359.135 372.140,359.300 372.067 C 359.465 371.993,359.600 371.498,359.600 370.967 C 359.600 370.435,359.780 370.000,360.000 370.000 C 360.220 370.000,360.400 369.640,360.400 369.200 C 360.400 368.760,360.580 368.400,360.800 368.400 C 361.020 368.400,361.200 367.860,361.200 367.200 C 361.200 366.540,361.380 366.000,361.600 366.000 C 361.820 366.000,362.000 365.280,362.000 364.400 C 362.000 363.520,362.180 362.800,362.400 362.800 C 362.622 362.800,362.800 361.733,362.800 360.400 C 362.800 359.067,362.978 358.000,363.200 358.000 C 363.437 358.000,363.600 356.541,363.600 354.424 C 363.600 352.457,363.780 350.736,364.000 350.600 C 364.255 350.442,364.400 345.004,364.400 335.600 C 364.400 326.196,364.255 320.758,364.000 320.600 C 363.753 320.447,363.600 316.937,363.600 311.400 C 363.600 305.863,363.447 302.353,363.200 302.200 C 362.955 302.048,362.800 298.804,362.800 293.800 C 362.800 288.796,362.645 285.552,362.400 285.400 C 362.153 285.247,362.000 281.804,362.000 276.400 C 362.000 270.996,361.847 267.553,361.600 267.400 C 361.347 267.244,361.200 262.529,361.200 254.576 C 361.200 246.459,361.058 242.000,360.800 242.000 C 360.536 242.000,360.400 230.208,360.400 207.424 C 360.400 184.804,360.538 172.762,360.800 172.600 C 361.053 172.444,361.200 167.729,361.200 159.776 C 361.200 151.659,361.342 147.200,361.600 147.200 C 362.561 147.200,362.080 136.040,361.078 135.082 C 359.295 133.377,356.000 132.415,356.000 133.600 " stroke="none" fill="#7beadb" fill-rule="evenodd"></path><path id="path1" d="M249.800 12.400 C 247.600 12.535,246.385 12.680,247.100 12.723 L 248.400 12.800 248.400 15.973 C 248.400 19.128,248.394 19.148,247.300 19.313 L 246.200 19.480 247.324 19.540 C 247.942 19.573,248.348 19.760,248.227 19.956 C 247.601 20.969,321.571 21.017,323.100 20.004 C 323.918 19.462,324.000 19.092,324.000 15.950 C 324.000 12.703,323.945 12.479,323.100 12.252 C 321.941 11.941,255.084 12.076,249.800 12.400 M277.000 37.600 C 276.864 37.820,276.313 38.000,275.776 38.000 C 275.239 38.000,274.800 38.180,274.800 38.400 C 274.800 38.620,274.440 38.800,274.000 38.800 C 273.560 38.800,273.200 38.968,273.200 39.173 C 273.200 39.378,272.831 39.663,272.380 39.806 C 270.888 40.280,267.600 43.993,267.600 45.205 C 267.600 45.642,267.420 46.000,267.200 46.000 C 266.980 46.000,266.800 46.450,266.800 47.000 C 266.800 47.550,266.615 48.000,266.390 48.000 C 266.129 48.000,265.997 49.819,266.026 53.001 C 266.054 55.883,266.227 57.907,266.437 57.777 C 266.637 57.654,266.800 58.114,266.800 58.800 C 266.800 59.530,266.966 59.945,267.200 59.800 C 267.420 59.664,267.600 59.851,267.600 60.215 C 267.600 61.404,271.403 66.000,272.387 66.000 C 272.614 66.000,272.800 66.180,272.800 66.400 C 272.800 66.620,273.171 66.800,273.624 66.800 C 274.077 66.800,274.336 66.980,274.200 67.200 C 274.056 67.433,274.463 67.600,275.176 67.600 C 275.849 67.600,276.400 67.780,276.400 68.000 C 276.400 68.245,278.333 68.400,281.400 68.400 C 284.467 68.400,286.400 68.245,286.400 68.000 C 286.400 67.780,286.850 67.600,287.400 67.600 C 287.950 67.600,288.400 67.420,288.400 67.200 C 288.400 66.980,288.673 66.800,289.007 66.800 C 289.799 66.800,294.800 61.799,294.800 61.007 C 294.800 60.673,294.980 60.400,295.200 60.400 C 295.420 60.400,295.600 60.051,295.600 59.624 C 295.600 59.197,295.780 58.736,296.000 58.600 C 296.220 58.464,296.400 57.564,296.400 56.600 C 296.400 55.636,296.580 54.736,296.800 54.600 C 297.020 54.464,297.200 53.633,297.200 52.753 C 297.200 51.788,297.041 51.251,296.800 51.400 C 296.552 51.553,296.400 50.804,296.400 49.424 C 296.400 48.201,296.220 47.200,296.000 47.200 C 295.780 47.200,295.600 46.861,295.600 46.446 C 295.600 45.463,294.597 43.536,294.261 43.873 C 294.117 44.016,294.000 43.892,294.000 43.598 C 294.000 42.884,290.545 39.600,289.793 39.600 C 289.467 39.600,289.200 39.420,289.200 39.200 C 289.200 38.980,288.930 38.800,288.600 38.800 C 288.270 38.800,288.000 38.620,288.000 38.400 C 288.000 38.180,287.471 38.000,286.824 38.000 C 286.177 38.000,285.536 37.820,285.400 37.600 C 285.262 37.377,283.404 37.200,281.200 37.200 C 278.996 37.200,277.138 37.377,277.000 37.600 M320.260 37.697 C 320.363 37.864,319.897 38.000,319.224 38.000 C 318.551 38.000,318.000 38.180,318.000 38.400 C 318.000 38.620,317.758 38.800,317.461 38.800 C 316.598 38.800,314.361 40.037,314.128 40.644 C 314.010 40.950,313.741 41.200,313.529 41.200 C 313.102 41.200,312.000 42.201,312.000 42.588 C 312.000 42.723,311.640 43.220,311.200 43.692 C 310.760 44.164,310.400 44.877,310.400 45.275 C 310.400 45.674,310.190 46.000,309.933 46.000 C 309.677 46.000,309.575 46.109,309.708 46.241 C 309.840 46.374,309.751 46.959,309.510 47.541 C 308.509 49.953,308.962 59.600,310.076 59.600 C 310.254 59.600,310.400 59.960,310.400 60.400 C 310.400 60.840,310.580 61.200,310.800 61.200 C 311.020 61.200,311.200 61.446,311.200 61.747 C 311.200 62.883,315.710 66.800,317.018 66.800 C 317.364 66.800,317.536 66.980,317.400 67.200 C 317.260 67.427,317.596 67.600,318.176 67.600 C 318.739 67.600,319.200 67.783,319.200 68.007 C 319.200 68.249,320.326 68.391,321.987 68.357 C 324.544 68.304,324.742 68.239,324.387 67.576 C 324.174 67.178,324.000 65.210,324.000 63.203 C 324.000 61.156,323.843 59.650,323.642 59.774 C 323.445 59.896,323.173 59.708,323.039 59.356 C 322.899 58.992,322.537 58.815,322.197 58.946 C 321.597 59.176,319.200 57.178,319.200 56.447 C 319.200 56.238,318.978 55.993,318.707 55.902 C 318.128 55.709,318.120 50.032,318.699 49.642 C 318.897 49.509,319.175 49.085,319.317 48.700 C 319.459 48.315,319.896 47.997,320.287 47.994 C 320.894 47.989,320.911 47.930,320.400 47.600 C 319.879 47.263,319.886 47.211,320.454 47.206 C 320.814 47.203,321.602 46.944,322.204 46.632 C 322.807 46.319,323.504 46.142,323.753 46.237 C 324.157 46.392,324.231 42.228,323.881 39.000 C 323.833 38.560,324.056 37.996,324.377 37.747 C 324.827 37.397,324.405 37.306,322.516 37.344 C 321.172 37.372,320.157 37.530,320.260 37.697 M247.028 39.954 C 246.879 40.196,246.920 40.685,247.119 41.041 C 247.424 41.586,247.516 41.596,247.703 41.108 C 247.995 40.347,247.407 39.341,247.028 39.954 M248.527 51.809 C 248.574 59.166,248.742 63.164,249.000 63.099 C 249.220 63.045,249.342 62.820,249.271 62.600 C 249.201 62.380,249.357 62.411,249.620 62.668 C 250.160 63.199,252.000 61.537,252.000 60.518 C 252.000 60.192,252.196 60.074,252.463 60.239 C 252.781 60.435,252.855 60.252,252.699 59.656 C 252.574 59.177,252.690 58.564,252.958 58.293 C 253.601 57.641,253.742 48.135,253.114 47.747 C 252.833 47.573,252.792 47.664,253.000 48.000 C 253.207 48.335,253.167 48.427,252.889 48.255 C 252.651 48.108,252.534 47.554,252.630 47.024 C 252.729 46.476,252.535 45.792,252.177 45.434 C 251.831 45.089,251.661 44.625,251.798 44.403 C 251.935 44.181,251.747 44.000,251.381 44.000 C 250.943 44.000,250.796 43.787,250.953 43.379 C 251.084 43.038,251.032 42.857,250.837 42.977 C 250.643 43.097,250.381 42.926,250.254 42.598 C 249.931 41.754,249.177 41.850,249.450 42.700 C 249.636 43.276,249.602 43.296,249.261 42.813 C 249.030 42.488,248.996 42.043,249.183 41.813 C 249.376 41.577,249.292 41.191,248.987 40.910 C 248.545 40.502,248.467 42.345,248.527 51.809 M284.654 46.998 C 285.284 47.326,285.620 47.602,285.400 47.610 C 285.180 47.618,285.315 47.808,285.700 48.032 C 286.085 48.256,286.400 48.701,286.400 49.020 C 286.400 49.339,286.580 49.600,286.800 49.600 C 287.020 49.600,287.200 49.949,287.200 50.376 C 287.200 50.803,287.380 51.264,287.600 51.400 C 287.820 51.536,288.000 52.267,288.000 53.024 C 288.000 53.781,287.820 54.400,287.600 54.400 C 287.380 54.400,287.200 54.805,287.200 55.300 C 287.199 56.396,285.553 58.400,284.653 58.400 C 284.294 58.400,284.000 58.542,284.000 58.715 C 284.000 59.506,279.342 59.475,278.545 58.678 C 278.392 58.525,277.952 58.400,277.567 58.400 C 277.174 58.400,276.634 57.874,276.336 57.200 C 276.044 56.540,275.669 56.000,275.502 56.000 C 275.336 56.000,275.200 55.460,275.200 54.800 C 275.200 54.140,275.009 53.600,274.776 53.600 C 274.543 53.600,274.476 53.401,274.626 53.158 C 274.776 52.915,274.987 52.066,275.094 51.272 C 275.606 47.474,280.970 45.076,284.654 46.998 M242.206 47.842 C 242.779 48.416,243.356 48.777,243.488 48.645 C 243.757 48.376,242.076 46.800,241.521 46.800 C 241.324 46.800,241.633 47.269,242.206 47.842 M247.646 64.631 C 246.100 65.436,245.471 66.800,246.647 66.800 C 247.102 66.800,247.230 66.557,247.078 65.977 C 246.891 65.263,246.948 65.223,247.508 65.677 C 247.924 66.014,248.052 66.031,247.868 65.725 C 247.707 65.456,247.890 65.078,248.288 64.855 C 249.344 64.264,248.750 64.056,247.646 64.631 M250.321 85.813 C 250.204 85.929,249.769 86.102,249.354 86.195 C 248.939 86.288,248.060 86.537,247.400 86.748 L 246.200 87.131 247.300 87.166 C 248.395 87.200,248.400 87.213,248.406 90.100 C 248.414 93.875,248.585 94.091,251.871 94.456 C 257.432 95.074,321.595 94.862,322.233 94.224 C 322.550 93.907,323.122 93.708,323.505 93.782 C 324.123 93.901,324.200 93.522,324.200 90.358 C 324.200 88.261,324.036 86.795,323.800 86.787 C 323.580 86.780,323.749 86.510,324.176 86.187 C 324.861 85.670,320.546 85.600,287.743 85.600 C 267.278 85.600,250.438 85.696,250.321 85.813 M245.423 94.233 C 244.774 94.707,244.754 94.800,245.300 94.800 C 245.659 94.800,246.071 94.608,246.216 94.373 C 246.640 93.687,246.261 93.620,245.423 94.233 M236.406 130.476 C 236.418 131.481,237.187 132.308,237.194 131.324 C 237.197 130.842,237.020 130.336,236.800 130.200 C 236.580 130.064,236.403 130.188,236.406 130.476 M242.202 205.202 C 242.602 205.644,243.011 205.922,243.112 205.821 C 243.328 205.605,242.188 204.400,241.767 204.400 C 241.607 204.400,241.803 204.761,242.202 205.202 M245.606 208.271 C 245.603 208.531,245.839 208.982,246.132 209.275 C 246.425 209.568,246.581 210.056,246.480 210.359 C 246.379 210.663,246.477 210.800,246.698 210.663 C 246.919 210.526,247.100 209.965,247.100 209.415 C 247.100 208.859,246.925 208.523,246.705 208.659 C 246.488 208.793,246.153 208.654,245.961 208.351 C 245.737 207.997,245.610 207.968,245.606 208.271 M243.600 217.200 C 243.600 217.420,243.859 217.600,244.176 217.600 C 244.493 217.600,244.864 217.420,245.000 217.200 C 245.136 216.980,244.877 216.800,244.424 216.800 C 243.971 216.800,243.600 216.980,243.600 217.200 M253.680 222.880 C 253.416 223.144,253.200 223.221,253.200 223.051 C 253.200 222.882,252.930 223.013,252.600 223.343 C 252.270 223.673,252.000 224.146,252.000 224.395 C 252.000 224.644,251.842 224.750,251.649 224.630 C 251.456 224.511,251.321 225.400,251.349 226.607 C 251.377 227.813,251.546 228.800,251.724 228.800 C 251.902 228.800,251.943 228.969,251.815 229.175 C 251.688 229.382,251.902 229.736,252.292 229.963 C 252.759 230.235,252.815 230.380,252.456 230.388 C 252.119 230.395,252.272 230.717,252.856 231.230 C 253.375 231.687,253.530 231.931,253.200 231.772 C 252.713 231.537,252.694 231.584,253.100 232.021 C 253.375 232.318,253.600 232.884,253.600 233.280 C 253.600 233.676,253.780 234.000,254.000 234.000 C 254.220 234.000,254.400 234.360,254.400 234.800 C 254.400 235.240,254.580 235.600,254.800 235.600 C 255.020 235.600,255.200 236.061,255.200 236.624 C 255.200 237.204,255.373 237.540,255.600 237.400 C 255.975 237.168,256.177 237.967,256.030 239.100 C 255.994 239.375,256.153 239.600,256.382 239.600 C 256.612 239.600,256.800 240.035,256.800 240.567 C 256.800 241.098,256.978 241.593,257.197 241.667 C 257.415 241.740,257.634 242.340,257.683 243.000 C 257.733 243.660,257.990 244.627,258.255 245.150 C 258.520 245.672,258.642 246.347,258.526 246.650 C 258.409 246.952,258.480 247.200,258.683 247.200 C 258.885 247.200,259.015 248.093,258.971 249.185 C 258.926 250.277,259.102 251.460,259.361 251.815 C 259.620 252.169,259.763 253.050,259.679 253.773 L 259.526 255.087 254.866 255.366 C 251.442 255.570,250.121 255.797,249.884 256.222 C 249.706 256.540,249.299 256.800,248.980 256.800 C 248.525 256.800,248.400 257.446,248.400 259.800 C 248.400 262.351,248.501 262.800,249.076 262.800 C 249.684 262.800,249.678 262.855,249.020 263.336 C 247.554 264.408,263.333 264.845,266.200 263.812 C 267.080 263.495,267.530 263.216,267.200 263.192 C 266.841 263.167,266.961 263.004,267.500 262.788 C 267.995 262.589,268.423 262.150,268.450 261.813 C 268.511 261.063,268.587 260.784,268.960 259.946 C 269.583 258.543,268.722 247.046,267.958 246.574 C 267.761 246.452,267.600 245.643,267.600 244.776 C 267.600 243.909,267.420 243.200,267.200 243.200 C 266.980 243.200,266.800 242.559,266.800 241.776 C 266.800 240.929,266.638 240.453,266.400 240.600 C 266.167 240.744,266.000 240.337,266.000 239.624 C 266.000 238.951,265.820 238.400,265.600 238.400 C 265.380 238.400,265.200 237.871,265.200 237.224 C 265.200 236.577,265.020 235.936,264.800 235.800 C 264.580 235.664,264.400 235.218,264.400 234.810 C 264.400 234.401,264.222 234.007,264.003 233.933 C 263.785 233.860,263.567 233.318,263.519 232.729 C 263.470 232.140,263.288 231.745,263.115 231.852 C 262.942 231.960,262.800 231.687,262.800 231.247 C 262.800 230.807,262.620 230.336,262.400 230.200 C 262.180 230.064,262.000 229.603,262.000 229.176 C 262.000 228.749,261.820 228.400,261.600 228.400 C 261.380 228.400,261.200 228.040,261.200 227.600 C 261.200 227.160,261.064 226.800,260.898 226.800 C 260.731 226.800,260.338 226.218,260.023 225.507 C 258.794 222.731,255.283 221.277,253.680 222.880 M249.200 273.600 C 248.362 273.868,248.329 273.929,249.000 273.972 C 249.737 274.020,249.745 274.056,249.100 274.432 C 248.527 274.766,248.400 275.412,248.400 277.998 L 248.400 281.156 246.500 281.306 C 245.455 281.388,256.975 281.488,272.100 281.528 C 290.119 281.575,299.600 281.738,299.600 282.000 C 299.600 282.220,299.883 282.400,300.229 282.400 C 301.037 282.400,302.000 283.363,302.000 284.171 C 302.000 284.517,302.180 284.800,302.400 284.800 C 303.023 284.800,302.930 301.383,302.300 302.490 C 301.537 303.831,300.920 304.400,300.229 304.400 C 299.883 304.400,299.600 304.580,299.600 304.800 C 299.600 305.062,290.393 305.221,272.900 305.260 C 258.215 305.293,246.673 305.393,247.251 305.482 C 248.291 305.642,248.302 305.682,248.368 309.288 C 248.405 311.292,248.527 313.082,248.641 313.266 C 249.010 313.863,302.769 313.668,304.504 313.064 C 305.331 312.776,305.886 312.419,305.737 312.270 C 305.588 312.122,305.767 312.000,306.133 312.000 C 306.500 312.000,306.800 311.820,306.800 311.600 C 306.800 311.380,307.058 311.200,307.373 311.200 C 307.688 311.200,308.060 310.841,308.199 310.402 C 308.338 309.964,308.666 309.372,308.926 309.087 C 309.758 308.178,310.400 306.835,310.400 306.005 C 310.400 305.562,310.580 305.200,310.800 305.200 C 311.029 305.200,311.200 303.992,311.200 302.376 C 311.200 300.536,311.344 299.642,311.613 299.808 C 311.892 299.981,312.012 297.526,311.983 292.232 C 311.958 287.733,311.782 284.400,311.570 284.400 C 311.366 284.400,311.197 283.815,311.194 283.100 C 311.187 281.538,310.251 278.683,309.870 279.063 C 309.722 279.212,309.600 279.019,309.600 278.635 C 309.600 278.040,308.143 276.441,305.830 274.500 C 305.502 274.225,304.866 274.000,304.417 274.000 C 303.968 274.000,303.600 273.820,303.600 273.600 C 303.600 273.114,250.716 273.114,249.200 273.600 M259.063 318.823 C 250.948 319.014,246.574 319.266,246.283 319.557 C 245.959 319.881,246.191 320.000,247.144 320.000 L 248.448 320.000 248.367 323.700 L 248.285 327.400 274.084 327.600 C 302.202 327.818,302.000 327.800,302.000 330.095 C 302.000 330.483,302.180 330.800,302.400 330.800 C 302.654 330.800,302.800 333.933,302.800 339.400 C 302.800 344.867,302.654 348.000,302.400 348.000 C 302.180 348.000,302.000 348.317,302.000 348.704 C 302.000 350.641,303.184 350.586,257.000 350.806 C 228.146 350.944,219.844 351.061,232.000 351.161 C 242.010 351.242,249.795 351.387,249.300 351.482 C 247.811 351.769,247.923 358.638,249.426 359.210 C 250.845 359.750,303.600 359.740,303.600 359.200 C 303.600 358.980,304.012 358.800,304.516 358.800 C 305.505 358.800,308.800 356.072,308.800 355.252 C 308.800 354.978,308.980 354.864,309.200 355.000 C 309.420 355.136,309.600 354.877,309.600 354.424 C 309.600 353.971,309.780 353.600,310.000 353.600 C 310.220 353.600,310.400 353.060,310.400 352.400 C 310.400 351.740,310.580 351.200,310.800 351.200 C 311.022 351.200,311.200 350.141,311.200 348.824 C 311.200 347.517,311.387 346.331,311.616 346.190 C 311.885 346.024,312.012 343.181,311.973 338.169 C 311.940 333.735,311.761 330.501,311.557 330.627 C 311.361 330.748,311.200 330.115,311.200 329.219 C 311.200 327.564,309.804 324.000,309.156 324.000 C 308.960 324.000,308.800 323.610,308.800 323.133 C 308.800 322.657,308.691 322.376,308.558 322.509 C 308.425 322.642,307.909 322.312,307.412 321.775 C 306.915 321.239,306.293 320.800,306.031 320.800 C 305.768 320.800,305.664 320.620,305.800 320.400 C 305.936 320.180,305.677 320.000,305.224 320.000 C 304.771 320.000,304.400 319.857,304.400 319.682 C 304.400 319.507,303.725 319.318,302.901 319.263 C 302.076 319.207,301.230 318.990,301.021 318.781 C 300.588 318.348,278.182 318.370,259.063 318.823 M248.400 379.637 C 248.747 379.882,248.827 380.134,248.590 380.234 C 248.364 380.329,248.224 381.080,248.278 381.903 C 248.637 387.341,248.628 388.357,248.225 388.052 C 247.991 387.875,247.386 387.947,246.880 388.212 C 246.143 388.598,247.911 388.684,255.814 388.647 C 262.838 388.613,265.778 388.733,266.052 389.063 C 266.547 389.659,320.800 389.781,320.800 389.186 C 320.800 388.974,321.340 388.800,322.000 388.800 C 322.690 388.800,323.203 388.588,323.206 388.300 C 323.210 387.967,323.342 388.000,323.600 388.400 C 323.864 388.809,323.990 387.676,323.994 384.847 C 324.003 378.497,328.852 379.199,285.039 379.206 C 258.678 379.210,247.975 379.336,248.400 379.637 M242.000 388.400 C 241.534 388.701,241.651 388.789,242.524 388.794 C 243.172 388.797,243.543 388.631,243.400 388.400 C 243.093 387.903,242.769 387.903,242.000 388.400 " stroke="none" fill="#27b1fc" fill-rule="evenodd"></path><path id="path2" d="M197.200 12.400 C 193.790 12.527,191.675 12.670,192.500 12.716 L 194.000 12.800 194.000 16.000 C 194.000 19.044,193.956 19.201,193.100 19.228 C 192.241 19.255,192.237 19.272,193.000 19.600 C 193.958 20.012,194.009 20.003,188.400 20.382 C 186.090 20.538,200.310 20.661,220.000 20.655 C 239.690 20.650,254.000 20.535,251.800 20.400 C 249.600 20.265,247.980 20.099,248.200 20.030 C 248.420 19.962,248.060 19.768,247.400 19.600 L 246.200 19.295 247.300 19.247 L 248.400 19.200 248.400 16.000 L 248.400 12.800 247.100 12.723 C 246.385 12.680,247.600 12.535,249.800 12.400 C 254.880 12.089,205.526 12.089,197.200 12.400 M234.000 37.635 C 234.000 37.836,233.676 38.000,233.280 38.000 C 232.386 38.000,230.407 38.894,230.403 39.300 C 230.401 39.465,230.085 39.606,229.700 39.613 C 228.835 39.628,227.518 40.585,227.873 40.940 C 228.016 41.083,227.803 41.200,227.400 41.200 C 226.997 41.200,226.783 41.317,226.926 41.459 C 227.069 41.602,226.874 42.007,226.493 42.359 C 225.662 43.127,224.000 46.247,224.000 47.038 C 224.000 47.347,223.840 47.600,223.644 47.600 C 223.181 47.600,223.055 57.128,223.509 57.736 C 223.700 57.991,224.107 59.010,224.414 60.000 C 224.721 60.990,225.492 62.295,226.128 62.900 C 226.764 63.505,227.182 64.000,227.057 64.000 C 226.788 64.000,228.506 65.858,228.800 65.886 C 228.910 65.897,229.236 65.927,229.524 65.953 C 229.813 65.979,229.920 66.207,229.762 66.462 C 229.600 66.724,229.651 66.816,229.879 66.675 C 230.101 66.538,230.624 66.684,231.041 67.000 C 231.458 67.316,232.115 67.580,232.500 67.587 C 232.885 67.594,233.200 67.790,233.200 68.022 C 233.200 68.691,241.388 68.419,243.247 67.689 C 244.101 67.353,244.800 66.932,244.800 66.752 C 244.800 66.572,245.054 66.522,245.364 66.641 C 245.706 66.773,246.034 66.522,246.198 66.006 C 246.417 65.317,247.642 64.478,248.800 64.223 C 249.956 63.969,250.418 63.313,249.803 62.802 C 249.446 62.507,249.210 62.430,249.277 62.632 C 249.345 62.835,249.220 63.000,249.000 63.000 C 248.745 63.000,248.574 58.991,248.529 51.915 C 248.482 44.702,248.304 40.581,248.019 40.115 C 247.695 39.588,247.595 39.558,247.637 40.000 C 247.772 41.411,247.593 41.829,247.166 41.097 C 246.941 40.710,246.886 40.185,247.044 39.929 C 247.238 39.615,247.108 39.550,246.645 39.727 C 246.234 39.885,246.057 39.831,246.205 39.593 C 246.340 39.374,246.169 39.106,245.825 38.997 C 245.481 38.889,244.885 38.681,244.500 38.535 C 243.487 38.150,243.290 38.105,242.376 38.050 C 241.923 38.023,241.656 37.833,241.782 37.629 C 241.918 37.410,240.370 37.260,238.006 37.264 C 235.803 37.268,234.000 37.435,234.000 37.635 M241.718 46.863 C 242.965 47.531,243.630 48.280,243.507 48.879 C 243.448 49.165,243.676 49.381,244.014 49.359 C 244.361 49.335,244.629 49.641,244.629 50.059 C 244.629 50.466,244.442 50.811,244.214 50.825 C 243.986 50.839,244.226 51.021,244.746 51.229 C 245.431 51.504,245.581 51.745,245.290 52.104 C 245.069 52.377,244.891 53.115,244.894 53.745 C 244.897 54.376,244.671 55.032,244.392 55.205 C 244.112 55.378,243.998 55.817,244.137 56.180 C 244.286 56.568,244.227 56.741,243.995 56.597 C 243.778 56.463,243.600 56.567,243.600 56.829 C 243.600 57.350,242.083 58.800,241.539 58.800 C 240.875 58.800,240.590 58.884,239.800 59.315 C 238.847 59.834,237.600 59.983,237.600 59.578 C 237.600 59.419,236.939 59.165,236.132 59.014 C 234.389 58.687,232.400 56.738,232.400 55.358 C 232.400 54.831,232.220 54.400,232.000 54.400 C 231.780 54.400,231.600 53.957,231.600 53.415 C 231.600 51.949,233.180 48.000,233.767 48.000 C 234.047 48.000,234.602 47.640,235.000 47.200 C 235.841 46.271,240.203 46.052,241.718 46.863 M252.570 47.478 C 252.629 47.875,252.809 48.170,252.971 48.133 C 253.579 47.996,253.602 47.700,253.042 47.235 C 252.572 46.845,252.484 46.890,252.570 47.478 M118.300 61.496 C 119.675 61.574,121.925 61.574,123.300 61.496 C 124.675 61.418,123.550 61.354,120.800 61.354 C 118.050 61.354,116.925 61.418,118.300 61.496 M166.707 61.490 C 167.426 61.579,168.506 61.577,169.107 61.486 C 169.708 61.395,169.120 61.322,167.800 61.324 C 166.480 61.326,165.988 61.401,166.707 61.490 M191.417 63.172 C 191.173 63.568,191.847 64.124,192.735 64.258 C 193.106 64.315,193.056 64.104,192.573 63.570 C 191.772 62.686,191.727 62.670,191.417 63.172 M194.400 65.936 C 193.493 66.948,193.607 75.124,194.538 75.804 C 195.227 76.308,195.481 77.021,194.828 76.617 C 194.623 76.491,194.324 76.615,194.164 76.893 C 194.003 77.172,194.019 77.267,194.199 77.103 C 194.615 76.727,195.666 77.570,195.372 78.045 C 195.251 78.240,195.367 78.400,195.629 78.400 C 195.892 78.400,196.429 78.772,196.823 79.226 C 197.217 79.681,197.643 80.041,197.770 80.026 C 198.564 79.936,198.817 80.049,198.600 80.400 C 198.464 80.620,198.554 80.800,198.800 80.800 C 199.046 80.800,199.133 80.984,198.994 81.210 C 198.855 81.435,198.925 81.570,199.151 81.510 C 199.502 81.416,202.286 83.654,204.863 86.100 C 205.268 86.485,205.600 86.702,205.600 86.582 C 205.600 86.462,206.058 86.822,206.618 87.382 C 207.178 87.942,207.808 88.400,208.018 88.400 C 208.228 88.400,208.400 88.700,208.400 89.067 C 208.400 89.433,208.505 89.628,208.633 89.500 C 208.863 89.270,209.273 89.561,211.373 91.445 C 211.958 91.970,212.565 92.400,212.722 92.400 C 212.879 92.400,213.232 92.760,213.507 93.200 C 213.963 93.931,214.440 94.000,219.003 94.000 C 221.865 94.000,224.000 94.161,224.000 94.377 C 224.000 95.139,244.467 94.911,245.570 94.137 C 246.473 93.504,246.523 93.503,246.283 94.128 C 246.141 94.498,246.184 94.800,246.379 94.800 C 246.574 94.800,246.824 94.575,246.935 94.300 C 247.096 93.900,247.143 93.900,247.168 94.300 C 247.191 94.662,248.110 94.784,250.500 94.741 C 253.711 94.684,253.737 94.676,251.482 94.435 C 248.642 94.132,248.414 93.811,248.406 90.100 C 248.400 87.213,248.395 87.200,247.300 87.166 L 246.200 87.131 247.400 86.748 C 248.060 86.537,248.939 86.288,249.354 86.195 C 249.769 86.102,250.204 85.929,250.321 85.813 C 250.438 85.696,243.319 85.600,234.502 85.600 L 218.471 85.600 217.461 84.400 C 216.906 83.740,216.295 83.200,216.104 83.200 C 215.913 83.200,215.069 82.570,214.228 81.800 C 213.387 81.030,212.542 80.400,212.350 80.400 C 212.157 80.400,212.000 80.130,212.000 79.800 C 212.000 79.470,211.730 79.200,211.400 79.200 C 211.070 79.200,210.800 79.048,210.800 78.863 C 210.800 78.678,210.170 78.187,209.400 77.772 C 208.630 77.357,208.000 76.808,208.000 76.552 C 208.000 76.075,206.863 75.414,206.270 75.546 C 206.089 75.587,206.041 75.457,206.165 75.257 C 206.288 75.058,205.806 74.607,205.094 74.256 C 204.382 73.905,203.963 73.614,204.161 73.609 C 204.562 73.599,203.340 72.464,201.200 70.859 C 200.430 70.281,199.485 69.464,199.100 69.043 C 198.715 68.622,198.400 68.401,198.400 68.553 C 198.400 68.704,198.035 68.633,197.589 68.394 C 197.143 68.155,196.900 67.761,197.051 67.518 C 197.215 67.252,197.140 67.190,196.862 67.362 C 196.608 67.519,196.400 67.446,196.400 67.200 C 196.400 66.954,196.221 66.863,196.003 66.998 C 195.785 67.133,195.290 67.040,194.903 66.791 C 194.329 66.422,194.320 66.376,194.855 66.540 C 195.343 66.689,195.458 66.544,195.308 65.970 C 195.197 65.547,195.083 65.215,195.053 65.233 C 195.024 65.252,194.730 65.568,194.400 65.936 M192.827 75.832 C 193.394 76.516,194.129 76.586,193.912 75.935 C 193.826 75.679,193.441 75.424,193.056 75.367 C 192.493 75.284,192.448 75.376,192.827 75.832 M195.843 104.870 C 195.956 105.052,195.666 105.200,195.200 105.200 C 194.734 105.200,194.448 105.355,194.565 105.544 C 194.682 105.733,194.288 105.809,193.689 105.714 C 191.234 105.322,190.400 105.297,190.400 105.615 C 190.400 105.800,190.895 105.917,191.500 105.875 C 192.196 105.828,192.563 105.984,192.500 106.300 C 192.445 106.575,192.535 106.779,192.700 106.753 C 193.947 106.556,194.059 106.850,193.930 109.981 C 193.777 113.733,193.238 113.415,199.964 113.545 C 202.694 113.597,205.247 113.811,205.638 114.020 C 206.028 114.229,206.889 114.400,207.550 114.400 C 208.212 114.400,208.864 114.580,209.000 114.800 C 209.136 115.020,209.777 115.200,210.424 115.200 C 211.071 115.200,211.600 115.380,211.600 115.600 C 211.600 115.820,211.870 116.000,212.200 116.000 C 212.530 116.000,212.800 116.180,212.800 116.400 C 212.800 116.620,212.935 116.779,213.100 116.753 C 214.004 116.610,214.815 116.852,214.600 117.200 C 214.464 117.420,214.723 117.600,215.176 117.600 C 215.629 117.600,216.000 117.768,216.000 117.973 C 216.000 118.178,216.343 118.455,216.763 118.588 C 217.715 118.890,220.875 121.365,220.921 121.845 C 220.975 122.402,221.768 123.135,222.100 122.934 C 222.265 122.835,222.400 123.063,222.400 123.443 C 222.400 123.823,222.510 124.023,222.645 123.888 C 222.918 123.616,225.600 127.340,225.600 127.990 C 225.600 128.216,225.799 128.400,226.043 128.400 C 226.286 128.400,226.396 128.633,226.287 128.917 C 226.178 129.201,226.333 129.767,226.632 130.176 C 226.930 130.584,227.080 131.071,226.964 131.259 C 226.848 131.447,226.904 131.600,227.089 131.600 C 227.439 131.600,228.643 135.161,228.481 135.716 C 228.431 135.890,228.576 136.381,228.804 136.807 C 229.817 138.700,229.035 154.040,227.959 153.375 C 227.800 153.277,227.721 153.661,227.784 154.230 C 227.851 154.843,227.664 155.354,227.326 155.484 C 227.011 155.605,226.847 155.945,226.960 156.240 C 227.073 156.535,226.934 157.009,226.651 157.292 C 226.368 157.575,226.210 158.031,226.301 158.304 C 226.392 158.577,226.272 158.800,226.033 158.800 C 225.795 158.800,225.600 159.070,225.600 159.400 C 225.600 159.730,225.420 160.000,225.200 160.000 C 224.980 160.000,224.800 160.204,224.800 160.453 C 224.800 160.702,224.428 161.229,223.974 161.623 C 223.519 162.017,223.201 162.398,223.266 162.470 C 223.510 162.736,222.118 164.385,221.864 164.131 C 221.719 163.986,221.600 164.090,221.600 164.362 C 221.600 164.970,220.612 166.000,220.029 166.000 C 219.793 166.000,219.600 166.180,219.600 166.400 C 219.600 166.620,219.300 166.800,218.933 166.800 C 218.567 166.800,218.385 166.918,218.530 167.063 C 218.926 167.459,217.999 168.400,217.213 168.400 C 216.834 168.400,216.198 168.760,215.800 169.200 C 215.402 169.640,214.834 170.000,214.538 170.000 C 214.242 170.000,214.000 170.180,214.000 170.400 C 214.000 170.620,213.550 170.800,213.000 170.800 C 212.450 170.800,212.000 170.980,212.000 171.200 C 212.000 171.420,211.651 171.600,211.224 171.600 C 210.797 171.600,210.336 171.780,210.200 172.000 C 210.064 172.220,209.459 172.400,208.856 172.400 C 208.253 172.400,207.580 172.580,207.360 172.800 C 207.140 173.020,205.930 173.224,204.671 173.253 C 203.412 173.282,202.285 173.462,202.167 173.653 C 201.838 174.186,198.228 174.065,197.630 173.500 C 197.206 173.100,197.063 173.100,196.916 173.502 C 196.815 173.779,196.554 173.895,196.336 173.761 C 196.119 173.626,195.459 173.483,194.870 173.442 L 193.800 173.368 193.800 177.445 C 193.800 179.688,193.920 181.448,194.068 181.358 C 194.215 181.267,194.607 181.464,194.939 181.796 C 195.657 182.514,206.968 182.699,207.400 182.000 C 207.536 181.780,208.447 181.600,209.424 181.600 C 210.401 181.600,211.200 181.420,211.200 181.200 C 211.200 180.980,211.819 180.800,212.576 180.800 C 213.333 180.800,214.064 180.620,214.200 180.400 C 214.336 180.180,214.797 180.000,215.224 180.000 C 215.651 180.000,216.000 179.820,216.000 179.600 C 216.000 179.380,216.360 179.200,216.800 179.200 C 217.240 179.200,217.600 179.020,217.600 178.800 C 217.600 178.580,217.960 178.400,218.400 178.400 C 218.840 178.400,219.200 178.262,219.200 178.094 C 219.200 177.926,219.905 177.483,220.766 177.110 C 221.627 176.737,222.789 175.975,223.348 175.416 C 223.906 174.857,224.542 174.400,224.759 174.400 C 224.977 174.400,225.406 174.041,225.713 173.603 C 226.020 173.164,226.391 172.924,226.536 173.069 C 226.681 173.214,226.800 173.141,226.800 172.907 C 226.800 172.350,229.508 169.642,229.787 169.920 C 229.904 170.037,230.000 169.745,230.000 169.270 C 230.000 168.795,230.360 168.182,230.800 167.907 C 231.240 167.632,231.603 167.046,231.606 166.604 C 231.611 165.938,231.679 165.903,232.000 166.400 C 232.342 166.929,232.388 166.926,232.394 166.380 C 232.402 165.558,233.320 163.607,233.700 163.603 C 233.865 163.601,234.000 163.229,234.000 162.776 C 234.000 162.323,234.180 162.064,234.400 162.200 C 234.620 162.336,234.800 162.074,234.800 161.618 C 234.800 161.162,234.959 160.477,235.153 160.095 C 237.514 155.454,238.448 150.976,238.470 144.200 C 238.485 139.564,238.340 138.077,237.606 135.296 C 237.398 134.507,237.408 134.081,237.631 134.219 C 237.834 134.345,238.000 134.257,238.000 134.024 C 238.000 133.791,237.864 133.600,237.697 133.600 C 237.399 133.600,236.400 130.817,236.400 129.987 C 236.400 129.753,236.040 128.816,235.600 127.906 C 235.160 126.995,234.800 125.913,234.800 125.501 C 234.800 125.090,234.635 124.855,234.432 124.980 C 234.128 125.168,232.912 122.438,233.145 122.091 C 233.185 122.031,232.761 121.524,232.201 120.965 C 231.642 120.406,231.306 119.752,231.454 119.512 C 231.615 119.251,231.538 119.191,231.262 119.362 C 231.008 119.519,230.800 119.478,230.800 119.272 C 230.800 119.065,230.080 118.155,229.200 117.248 C 228.320 116.341,227.600 115.409,227.600 115.176 C 227.600 114.943,227.420 114.864,227.200 115.000 C 226.980 115.136,226.800 114.967,226.800 114.624 C 226.800 114.281,226.626 114.000,226.413 114.000 C 226.201 114.000,225.391 113.364,224.613 112.587 C 223.836 111.809,223.200 111.301,223.200 111.456 C 223.200 111.612,222.795 111.362,222.300 110.900 C 221.805 110.438,221.134 110.001,220.810 109.930 C 220.485 109.858,219.975 109.573,219.677 109.296 C 219.379 109.019,218.970 108.895,218.768 109.020 C 218.565 109.145,218.400 109.057,218.400 108.824 C 218.400 108.591,218.040 108.400,217.600 108.400 C 217.160 108.400,216.800 108.220,216.800 108.000 C 216.800 107.780,216.440 107.600,216.000 107.600 C 215.560 107.600,215.200 107.458,215.200 107.285 C 215.200 107.112,214.622 106.926,213.916 106.872 C 213.209 106.818,212.534 106.623,212.416 106.439 C 212.188 106.084,210.302 105.700,207.000 105.338 C 205.900 105.217,204.820 104.976,204.600 104.803 C 204.067 104.382,195.582 104.448,195.843 104.870 M191.860 113.389 C 191.717 113.761,191.600 114.144,191.600 114.241 C 191.600 114.504,193.661 114.077,193.949 113.754 C 194.087 113.599,193.890 113.584,193.511 113.720 C 193.094 113.869,192.682 113.718,192.470 113.340 C 192.157 112.779,192.092 112.784,191.860 113.389 M191.333 172.938 C 191.333 173.253,191.578 173.474,191.878 173.430 C 192.591 173.325,192.599 172.633,191.888 172.484 C 191.583 172.419,191.333 172.624,191.333 172.938 M191.652 180.537 C 191.407 180.832,191.325 181.192,191.470 181.337 C 191.940 181.806,192.228 181.617,192.290 180.800 C 192.361 179.858,192.253 179.814,191.652 180.537 M192.825 181.300 C 192.804 182.220,192.967 182.400,193.824 182.400 C 194.415 182.400,194.741 182.228,194.596 181.993 C 194.458 181.770,194.176 181.691,193.969 181.819 C 193.762 181.947,193.426 181.635,193.222 181.126 C 192.858 180.218,192.850 180.221,192.825 181.300 M194.046 194.880 C 194.008 198.108,193.882 198.835,193.300 199.203 C 192.842 199.493,192.807 199.587,193.200 199.475 C 193.530 199.381,194.146 199.596,194.569 199.952 C 194.992 200.308,195.206 200.375,195.045 200.100 C 194.884 199.825,194.943 199.600,195.176 199.600 C 195.409 199.600,195.600 199.742,195.600 199.916 C 195.600 200.090,196.185 200.199,196.900 200.158 C 197.615 200.118,198.200 200.053,198.200 200.013 C 198.200 199.974,198.875 199.910,199.700 199.871 C 200.525 199.832,201.200 199.957,201.200 200.149 C 201.200 200.341,201.485 200.262,201.832 199.973 C 202.330 199.560,202.628 199.550,203.232 199.927 C 203.836 200.305,204.001 200.300,204.006 199.903 C 204.011 199.535,204.091 199.524,204.307 199.863 C 204.483 200.140,205.782 200.337,207.548 200.353 C 209.300 200.370,210.750 200.587,211.124 200.890 C 211.652 201.318,211.697 201.303,211.400 200.800 C 211.116 200.319,211.161 200.290,211.623 200.653 C 212.160 201.074,213.033 201.273,216.900 201.857 C 217.725 201.982,218.400 202.245,218.400 202.442 C 218.400 202.639,218.850 202.800,219.400 202.800 C 219.950 202.800,220.400 202.980,220.400 203.200 C 220.400 203.420,220.951 203.600,221.624 203.600 C 222.297 203.600,222.759 203.743,222.651 203.917 C 222.544 204.091,222.758 204.259,223.128 204.290 C 223.497 204.320,224.520 204.661,225.400 205.047 C 226.280 205.433,227.135 205.715,227.300 205.674 C 227.465 205.633,227.600 205.758,227.600 205.951 C 227.600 206.145,228.140 206.527,228.800 206.800 C 229.460 207.073,230.000 207.455,230.000 207.649 C 230.000 207.842,230.320 208.000,230.712 208.000 C 231.103 208.000,231.676 208.350,231.985 208.779 C 232.293 209.207,232.697 209.463,232.883 209.349 C 233.068 209.234,233.864 209.784,234.650 210.570 C 235.437 211.357,236.168 212.000,236.275 212.000 C 236.789 212.000,240.011 214.603,240.188 215.163 C 240.300 215.514,240.978 216.056,241.695 216.368 C 242.413 216.680,243.132 217.130,243.294 217.368 C 243.493 217.661,243.590 217.639,243.594 217.300 C 243.598 216.996,244.150 216.800,245.000 216.800 C 246.355 216.800,248.000 215.704,248.000 214.800 C 248.000 214.580,248.169 214.400,248.375 214.400 C 248.581 214.400,248.740 213.680,248.728 212.800 C 248.716 211.920,248.550 211.200,248.360 211.200 C 248.171 211.200,247.901 210.745,247.761 210.188 C 247.574 209.440,247.318 209.235,246.786 209.404 C 246.276 209.566,245.981 209.370,245.779 208.735 C 245.436 207.654,244.590 206.743,244.248 207.086 C 244.111 207.222,244.000 207.033,244.000 206.667 C 244.000 206.300,243.760 206.000,243.466 206.000 C 243.172 206.000,242.451 205.460,241.863 204.800 C 241.275 204.140,240.605 203.600,240.373 203.600 C 240.142 203.600,240.064 203.420,240.200 203.200 C 240.336 202.980,240.249 202.800,240.007 202.800 C 239.765 202.800,239.180 202.440,238.708 202.000 C 238.236 201.560,237.613 201.200,237.325 201.200 C 237.036 201.200,236.800 201.009,236.800 200.776 C 236.800 200.543,236.619 200.465,236.397 200.602 C 236.176 200.739,235.898 200.600,235.781 200.293 C 235.663 199.987,234.952 199.495,234.201 199.201 C 233.451 198.906,232.929 198.515,233.042 198.332 C 233.155 198.150,232.821 198.000,232.299 198.000 C 231.778 198.000,230.945 197.622,230.449 197.160 C 229.953 196.698,229.441 196.426,229.310 196.556 C 229.180 196.687,228.814 196.578,228.498 196.315 C 228.181 196.052,227.538 195.779,227.070 195.707 C 226.601 195.636,226.042 195.402,225.829 195.189 C 225.615 194.975,225.062 194.800,224.600 194.800 C 224.138 194.800,223.589 194.651,223.380 194.470 C 223.171 194.288,222.280 193.934,221.400 193.684 C 220.520 193.433,219.350 193.099,218.800 192.940 C 218.250 192.782,217.440 192.627,217.000 192.595 C 216.560 192.563,215.930 192.426,215.600 192.291 C 213.430 191.399,194.929 191.047,195.100 191.900 C 195.255 192.676,194.482 192.489,194.276 191.700 C 194.175 191.315,194.072 192.746,194.046 194.880 M192.080 192.080 C 191.816 192.344,191.605 192.749,191.612 192.980 C 191.619 193.211,191.804 193.092,192.023 192.717 C 192.242 192.340,192.685 192.135,193.011 192.259 C 193.335 192.384,193.600 192.286,193.600 192.043 C 193.600 191.455,192.682 191.478,192.080 192.080 M196.800 255.600 C 196.800 255.820,196.125 256.000,195.300 256.000 L 193.800 255.999 193.800 259.500 L 193.800 263.000 195.400 263.240 C 196.713 263.437,196.462 263.502,194.000 263.603 L 191.000 263.727 194.600 264.021 C 196.580 264.183,210.710 264.303,226.000 264.287 C 241.290 264.271,252.540 264.156,251.000 264.029 C 248.576 263.831,248.307 263.734,249.000 263.312 C 249.702 262.884,249.714 262.823,249.100 262.812 C 248.497 262.802,248.400 262.386,248.400 259.800 C 248.400 257.446,248.525 256.800,248.980 256.800 C 249.299 256.800,249.705 256.542,249.882 256.226 C 250.072 255.885,251.016 255.589,252.201 255.498 C 253.301 255.413,241.285 255.312,225.500 255.272 C 206.585 255.225,196.800 255.336,196.800 255.600 M194.400 273.600 L 193.400 273.920 194.400 274.007 C 195.082 274.065,195.183 274.150,194.717 274.272 C 194.168 274.417,194.011 275.015,193.917 277.326 C 193.803 280.131,193.773 280.203,192.700 280.327 C 192.095 280.396,191.600 280.612,191.600 280.806 C 191.600 281.000,190.655 281.224,189.500 281.305 C 188.345 281.386,199.910 281.484,215.200 281.523 C 230.490 281.562,244.215 281.480,245.700 281.339 L 248.400 281.084 248.400 277.962 C 248.400 275.410,248.528 274.765,249.100 274.432 C 249.745 274.056,249.737 274.020,249.000 273.972 C 248.329 273.929,248.362 273.868,249.200 273.600 C 249.750 273.424,237.870 273.280,222.800 273.280 C 207.730 273.280,194.950 273.424,194.400 273.600 M193.800 306.000 C 193.389 306.454,193.276 306.800,193.538 306.800 C 193.846 306.800,194.000 307.798,194.000 309.800 L 194.000 312.800 192.500 312.859 C 191.355 312.904,191.568 312.988,193.400 313.215 C 196.736 313.629,248.895 313.677,248.641 313.266 C 248.527 313.082,248.405 311.302,248.368 309.310 L 248.302 305.689 246.851 305.449 C 242.331 304.701,194.526 305.198,193.800 306.000 M198.210 318.848 C 190.374 319.205,188.340 319.463,192.400 319.585 C 193.830 319.628,194.775 319.754,194.500 319.865 C 194.164 320.001,194.000 321.030,194.000 323.010 C 194.000 324.926,193.826 326.060,193.502 326.260 C 192.160 327.090,197.787 327.331,222.049 327.485 L 248.297 327.651 248.369 323.826 L 248.440 320.000 247.140 320.000 C 246.189 320.000,245.959 319.881,246.283 319.557 C 246.574 319.266,250.948 319.014,259.063 318.823 C 268.395 318.602,263.363 318.530,238.400 318.526 C 220.250 318.523,202.164 318.668,198.210 318.848 M200.000 350.800 C 192.190 350.918,187.690 351.081,190.000 351.160 C 193.081 351.267,193.827 351.384,192.800 351.600 L 191.400 351.895 192.700 351.947 L 194.000 352.000 194.000 355.200 L 194.000 358.400 192.500 358.446 L 191.000 358.492 192.600 358.918 C 194.618 359.456,250.635 359.721,249.300 359.186 C 248.460 358.850,248.400 358.585,248.400 355.241 C 248.400 351.841,248.447 351.647,249.300 351.482 C 249.795 351.387,242.010 351.241,232.000 351.157 C 219.509 351.053,227.163 350.941,256.400 350.800 L 299.000 350.595 256.600 350.590 C 233.280 350.587,207.810 350.682,200.000 350.800 M192.459 379.483 C 193.734 379.678,193.987 380.434,193.995 384.067 C 193.998 385.534,194.107 387.015,194.239 387.357 C 194.450 387.908,196.664 387.981,213.521 387.992 C 225.595 388.000,232.710 388.150,232.962 388.402 C 233.452 388.892,234.800 388.929,234.800 388.452 C 234.800 388.260,235.565 388.239,236.500 388.404 C 238.324 388.727,241.384 388.624,242.460 388.203 C 242.822 388.062,243.238 388.138,243.383 388.373 C 243.756 388.976,245.602 388.899,246.893 388.225 C 247.656 387.827,248.068 387.786,248.255 388.089 C 248.427 388.367,248.335 388.407,248.000 388.200 C 247.640 387.978,247.573 388.032,247.783 388.373 C 248.423 389.408,248.632 388.070,248.420 384.299 C 248.283 381.866,248.350 380.335,248.600 380.230 C 250.620 379.377,245.768 379.216,219.600 379.266 C 204.090 379.296,191.877 379.393,192.459 379.483 " stroke="none" fill="#3090fc" fill-rule="evenodd"></path><path id="path3" d="M57.600 12.400 C 57.270 12.613,56.505 12.791,55.900 12.794 C 55.295 12.797,54.800 12.980,54.800 13.200 C 54.800 13.420,54.451 13.600,54.024 13.600 C 53.597 13.600,53.136 13.780,53.000 14.000 C 52.864 14.220,52.403 14.400,51.976 14.400 C 51.549 14.400,51.200 14.580,51.200 14.800 C 51.200 15.020,50.880 15.200,50.488 15.200 C 50.097 15.200,49.517 15.560,49.200 16.000 C 48.883 16.440,48.422 16.800,48.175 16.800 C 47.929 16.800,46.870 17.610,45.822 18.600 C 44.774 19.590,44.016 20.400,44.139 20.400 C 44.262 20.400,43.916 20.881,43.371 21.469 C 42.826 22.057,42.276 22.955,42.148 23.466 C 42.020 23.977,41.754 24.295,41.557 24.174 C 41.361 24.052,41.200 24.323,41.200 24.776 C 41.200 25.229,41.020 25.600,40.800 25.600 C 40.580 25.600,40.400 26.061,40.400 26.624 C 40.400 27.204,40.227 27.540,40.000 27.400 C 39.773 27.260,39.600 27.596,39.600 28.176 C 39.600 28.739,39.420 29.200,39.200 29.200 C 38.980 29.200,38.800 29.999,38.800 30.976 C 38.800 31.953,38.620 32.864,38.400 33.000 C 38.134 33.164,38.000 89.271,38.000 200.024 C 38.000 310.941,38.134 366.800,38.400 366.800 C 38.620 366.800,38.800 367.700,38.800 368.800 C 38.800 369.900,38.980 370.800,39.200 370.800 C 39.420 370.800,39.600 371.325,39.600 371.967 C 39.600 372.608,39.742 373.193,39.915 373.267 C 40.088 373.340,40.747 374.467,41.379 375.772 C 42.589 378.268,47.113 383.200,48.193 383.200 C 48.527 383.200,48.801 383.335,48.803 383.500 C 48.807 383.859,50.744 384.800,51.480 384.800 C 51.766 384.800,52.000 384.980,52.000 385.200 C 52.000 385.420,52.349 385.600,52.776 385.600 C 53.203 385.600,53.664 385.780,53.800 386.000 C 53.936 386.220,54.566 386.400,55.200 386.400 C 55.834 386.400,56.464 386.580,56.600 386.800 C 56.736 387.020,57.557 387.200,58.424 387.200 C 59.291 387.200,60.000 387.380,60.000 387.600 C 60.000 387.837,61.467 388.000,63.600 388.000 C 65.631 388.000,67.200 388.167,67.200 388.384 C 67.200 388.872,87.580 388.913,88.174 388.426 C 88.408 388.234,89.230 388.018,90.000 387.948 C 92.108 387.754,93.199 386.306,93.200 383.700 C 93.200 382.545,93.020 381.600,92.800 381.600 C 92.580 381.600,92.400 381.240,92.400 380.800 C 92.400 380.342,92.133 380.000,91.776 380.000 C 91.433 380.000,91.258 379.829,91.387 379.621 C 91.533 379.385,86.670 379.230,78.521 379.211 C 70.585 379.192,65.266 379.026,65.030 378.790 C 64.816 378.576,63.686 378.400,62.520 378.400 C 61.354 378.400,60.400 378.220,60.400 378.000 C 60.400 377.780,59.770 377.600,59.000 377.600 C 58.230 377.600,57.600 377.420,57.600 377.200 C 57.600 376.980,57.251 376.800,56.824 376.800 C 56.397 376.800,55.945 376.634,55.819 376.431 C 55.694 376.228,55.051 375.943,54.392 375.798 C 53.733 375.653,53.295 375.370,53.420 375.167 C 53.545 374.965,53.358 374.800,53.005 374.800 C 52.231 374.800,50.400 373.048,50.400 372.306 C 50.400 372.015,50.040 371.517,49.600 371.200 C 49.160 370.883,48.800 370.303,48.800 369.912 C 48.800 369.520,48.620 369.200,48.400 369.200 C 48.180 369.200,48.000 368.581,48.000 367.824 C 48.000 367.067,47.820 366.336,47.600 366.200 C 47.335 366.036,47.200 319.329,47.200 227.376 L 47.200 88.800 71.500 88.779 C 101.151 88.753,100.933 88.757,101.285 88.228 C 101.442 87.993,101.757 87.778,101.985 87.750 C 102.917 87.638,102.976 87.573,102.447 87.238 C 102.008 86.959,102.056 86.836,102.684 86.637 C 103.680 86.321,103.863 83.120,102.938 82.196 C 102.614 81.871,102.478 81.397,102.636 81.141 C 102.815 80.852,102.749 80.784,102.462 80.962 C 102.188 81.131,102.000 80.993,102.000 80.624 C 102.000 80.201,101.623 80.000,100.833 80.000 C 100.192 80.000,99.576 79.775,99.465 79.500 C 99.354 79.225,99.249 79.180,99.232 79.400 C 99.211 79.663,90.322 79.764,73.200 79.694 L 47.200 79.589 47.200 75.194 L 47.200 70.800 76.700 70.798 C 92.925 70.797,107.955 70.680,110.100 70.538 L 114.000 70.279 114.000 66.540 C 114.000 63.316,113.908 62.800,113.333 62.800 C 112.212 62.800,112.975 62.418,114.410 62.261 C 115.154 62.179,115.831 61.907,115.915 61.656 C 116.098 61.107,115.115 61.047,114.580 61.575 C 114.093 62.055,113.503 62.062,77.500 62.028 L 47.200 62.000 47.200 49.200 C 47.200 40.933,47.342 36.400,47.600 36.400 C 47.820 36.400,48.000 35.691,48.000 34.824 C 48.000 33.957,48.180 33.136,48.400 33.000 C 48.620 32.864,48.800 32.213,48.800 31.553 C 48.800 30.855,48.967 30.456,49.200 30.600 C 49.547 30.814,49.809 29.657,49.637 28.670 C 49.606 28.489,49.765 28.455,49.990 28.594 C 50.216 28.733,50.400 28.567,50.400 28.224 C 50.400 27.881,50.558 27.600,50.751 27.600 C 50.945 27.600,51.327 27.060,51.600 26.400 C 51.873 25.740,52.221 25.200,52.373 25.200 C 52.525 25.200,53.043 24.833,53.525 24.384 C 54.006 23.936,54.400 23.678,54.400 23.812 C 54.400 23.945,54.923 23.682,55.562 23.227 C 56.201 22.772,57.011 22.400,57.362 22.400 C 57.713 22.400,58.000 22.220,58.000 22.000 C 58.000 21.780,58.774 21.600,59.720 21.600 C 60.666 21.600,61.619 21.421,61.837 21.203 C 62.089 20.951,71.664 20.768,88.117 20.703 C 112.550 20.606,116.290 20.432,113.124 19.540 L 112.200 19.280 113.100 19.240 C 114.330 19.185,114.524 12.857,113.300 12.724 C 112.915 12.683,114.220 12.537,116.200 12.400 C 118.180 12.263,105.940 12.120,89.000 12.082 C 69.671 12.038,57.977 12.157,57.600 12.400 M129.320 61.498 C 131.255 61.572,134.315 61.571,136.120 61.497 C 137.924 61.423,136.340 61.363,132.600 61.364 C 128.860 61.364,127.384 61.425,129.320 61.498 M154.900 61.498 C 156.825 61.571,159.975 61.571,161.900 61.498 C 163.825 61.425,162.250 61.365,158.400 61.365 C 154.550 61.365,152.975 61.425,154.900 61.498 M95.290 273.771 C 94.570 274.033,94.105 274.371,94.257 274.523 C 94.409 274.676,94.262 274.800,93.931 274.800 C 93.177 274.800,90.400 277.757,90.400 278.559 C 90.400 278.886,90.220 279.264,90.000 279.400 C 89.780 279.536,89.600 280.087,89.600 280.624 C 89.600 281.161,89.420 281.600,89.200 281.600 C 88.978 281.600,88.800 282.659,88.800 283.976 C 88.800 285.283,88.625 286.461,88.411 286.593 C 88.179 286.737,88.034 289.972,88.051 294.616 C 88.068 299.113,88.232 302.304,88.440 302.175 C 88.638 302.053,88.800 302.863,88.800 303.976 C 88.800 305.089,88.980 306.000,89.200 306.000 C 89.420 306.000,89.603 306.495,89.606 307.100 C 89.611 307.957,89.698 308.068,90.000 307.600 C 90.328 307.092,90.389 307.112,90.394 307.729 C 90.397 308.129,90.625 308.683,90.900 308.958 C 91.175 309.234,91.850 310.029,92.400 310.726 C 92.950 311.423,93.726 311.994,94.124 311.996 C 94.522 311.998,94.736 312.180,94.600 312.400 C 94.460 312.626,94.788 312.800,95.353 312.800 C 95.903 312.800,96.464 312.980,96.600 313.200 C 96.754 313.449,100.127 313.585,105.524 313.560 C 110.495 313.537,113.773 313.384,113.200 313.200 C 112.241 312.893,112.237 312.878,113.100 312.840 C 113.963 312.802,114.000 312.653,114.000 309.243 C 114.000 304.913,114.528 305.200,106.567 305.200 C 102.135 305.200,100.400 305.069,100.400 304.733 C 100.400 304.477,100.286 304.380,100.147 304.519 C 100.008 304.658,99.543 304.584,99.113 304.354 C 98.683 304.123,98.431 303.836,98.552 303.715 C 98.673 303.594,98.528 303.147,98.230 302.722 C 97.932 302.296,97.780 301.600,97.891 301.174 C 98.002 300.748,97.892 300.400,97.647 300.400 C 97.333 300.400,97.200 298.076,97.200 292.600 C 97.200 287.667,97.347 284.800,97.600 284.800 C 97.820 284.800,98.000 284.609,98.000 284.376 C 98.000 284.143,97.775 284.076,97.500 284.227 C 96.641 284.698,98.991 282.628,99.914 282.100 C 100.494 281.768,102.593 281.600,106.145 281.600 C 109.090 281.600,112.040 281.492,112.700 281.360 L 113.899 281.120 113.966 277.760 C 114.024 274.815,113.946 274.400,113.339 274.400 C 112.721 274.400,112.730 274.337,113.424 273.813 C 114.447 273.038,97.416 272.999,95.290 273.771 M115.200 304.821 C 115.200 305.317,119.533 305.233,119.843 304.731 C 119.955 304.549,118.957 304.400,117.624 304.400 C 116.196 304.400,115.200 304.573,115.200 304.821 M98.978 318.836 C 98.854 319.036,98.280 319.200,97.703 319.200 C 95.734 319.200,92.000 321.350,92.000 322.483 C 92.000 322.780,91.640 323.283,91.200 323.600 C 90.760 323.917,90.400 324.407,90.400 324.688 C 90.400 324.970,90.220 325.200,90.000 325.200 C 89.780 325.200,89.600 325.639,89.600 326.176 C 89.600 326.713,89.420 327.264,89.200 327.400 C 88.980 327.536,88.800 328.796,88.800 330.200 C 88.800 331.604,88.612 332.869,88.383 333.010 C 87.867 333.330,87.925 347.907,88.445 348.228 C 88.640 348.348,88.800 349.247,88.800 350.224 C 88.800 351.201,88.938 352.000,89.106 352.000 C 89.274 352.000,89.706 352.675,90.067 353.500 C 90.780 355.131,93.077 358.000,93.670 358.000 C 93.873 358.000,94.784 358.360,95.694 358.800 C 97.241 359.547,98.076 359.595,108.375 359.520 C 116.001 359.465,117.982 359.373,114.800 359.220 C 110.794 359.028,110.442 358.959,112.071 358.680 L 113.942 358.360 114.071 354.944 C 114.170 352.332,114.064 351.420,113.623 351.064 C 113.203 350.726,113.121 350.724,113.321 351.058 C 113.499 351.355,113.257 351.495,112.632 351.458 C 112.014 351.421,111.792 351.251,112.014 350.984 C 112.232 350.721,112.068 350.545,111.571 350.508 C 111.137 350.475,110.887 350.618,111.015 350.824 C 111.143 351.031,110.832 351.197,110.324 351.194 C 109.581 351.189,109.517 351.112,110.000 350.800 C 110.361 350.567,110.410 350.410,110.124 350.406 C 109.862 350.403,109.536 350.580,109.400 350.800 C 109.262 351.023,107.396 351.200,105.176 351.200 C 102.792 351.200,101.200 351.040,101.200 350.800 C 101.200 350.580,100.872 350.400,100.472 350.400 C 99.473 350.400,98.000 348.610,98.000 347.397 C 98.000 346.849,97.820 346.400,97.600 346.400 C 97.346 346.400,97.200 343.400,97.200 338.200 C 97.200 333.000,97.346 330.000,97.600 330.000 C 97.820 330.000,98.000 329.700,98.000 329.333 C 98.000 328.967,98.109 328.776,98.243 328.909 C 98.376 329.043,98.832 328.829,99.255 328.435 C 99.907 327.827,101.024 327.685,106.582 327.501 C 114.535 327.238,114.000 327.547,114.000 323.223 C 114.000 319.374,113.993 319.364,111.200 319.126 C 110.650 319.079,112.270 318.929,114.800 318.792 C 118.279 318.605,116.938 318.535,109.301 318.508 C 103.622 318.488,99.104 318.631,98.978 318.836 M115.305 350.687 C 115.914 350.779,116.814 350.777,117.305 350.682 C 117.797 350.587,117.300 350.511,116.200 350.514 C 115.100 350.517,114.697 350.595,115.305 350.687 M100.344 380.030 C 99.825 380.487,99.670 380.728,100.000 380.566 C 100.330 380.404,100.195 380.717,99.700 381.261 C 99.140 381.877,98.800 382.762,98.800 383.600 C 98.800 384.438,99.140 385.323,99.700 385.939 C 100.195 386.483,100.375 386.799,100.100 386.641 C 99.450 386.266,99.457 386.714,100.111 387.368 C 100.798 388.055,114.400 388.278,114.400 387.603 C 114.400 387.355,114.265 387.237,114.100 387.339 C 113.935 387.442,113.890 385.930,114.000 383.980 C 114.190 380.604,114.162 380.440,113.400 380.558 C 112.960 380.627,112.810 380.609,113.066 380.519 C 113.322 380.428,113.632 380.095,113.753 379.777 C 114.161 378.715,101.569 378.953,100.344 380.030 M116.000 379.800 C 116.000 380.130,116.264 380.400,116.587 380.400 C 116.945 380.400,117.085 380.165,116.945 379.800 C 116.818 379.470,116.554 379.200,116.357 379.200 C 116.161 379.200,116.000 379.470,116.000 379.800 " stroke="none" fill="#543cfc" fill-rule="evenodd"></path><path id="path4" d="M116.200 12.400 C 114.220 12.537,112.915 12.683,113.300 12.724 C 114.524 12.857,114.330 19.185,113.100 19.240 C 112.242 19.278,112.246 19.293,113.200 19.575 C 113.750 19.738,114.150 20.094,114.090 20.367 C 113.965 20.925,189.768 20.744,192.399 20.180 C 193.596 19.923,193.683 19.835,192.999 19.568 C 192.243 19.273,192.249 19.255,193.100 19.228 C 193.956 19.201,194.000 19.044,194.000 16.000 L 194.000 12.800 192.500 12.716 C 191.675 12.670,193.790 12.527,197.200 12.400 C 200.610 12.273,184.590 12.164,161.600 12.160 C 138.610 12.155,118.180 12.263,116.200 12.400 M121.200 61.505 C 118.670 61.563,116.330 61.722,116.000 61.858 C 115.670 61.994,114.873 62.174,114.229 62.257 C 112.919 62.427,112.303 62.800,113.333 62.800 C 113.909 62.800,114.000 63.319,114.000 66.582 L 114.000 70.363 111.300 70.503 C 109.815 70.580,126.386 70.679,148.124 70.722 C 169.862 70.765,187.565 70.935,187.466 71.100 C 187.366 71.265,187.535 71.632,187.842 71.916 C 188.149 72.199,188.406 72.289,188.413 72.116 C 188.421 71.942,188.758 72.197,189.164 72.683 C 189.569 73.169,190.013 73.454,190.150 73.316 C 190.288 73.179,190.400 73.287,190.400 73.557 C 190.400 73.827,190.580 73.936,190.800 73.800 C 191.020 73.664,191.200 73.743,191.200 73.976 C 191.200 74.209,191.481 74.400,191.824 74.400 C 192.167 74.400,192.336 74.580,192.200 74.800 C 192.064 75.020,192.143 75.223,192.376 75.250 C 192.609 75.278,193.025 75.327,193.300 75.360 C 193.575 75.392,193.773 75.742,193.740 76.137 C 193.702 76.589,193.880 76.778,194.219 76.648 C 194.549 76.521,194.681 76.646,194.557 76.969 C 194.445 77.259,194.660 77.614,195.034 77.758 C 195.573 77.965,195.620 77.906,195.260 77.472 C 195.011 77.172,194.927 76.806,195.074 76.659 C 195.221 76.512,195.017 76.154,194.620 75.864 C 193.624 75.136,193.411 66.231,194.400 66.640 C 194.730 66.777,195.270 66.914,195.600 66.944 C 195.930 66.975,196.343 67.223,196.517 67.495 C 196.692 67.767,197.232 68.183,197.717 68.418 L 198.600 68.845 197.717 68.072 C 197.231 67.647,196.899 67.232,196.978 67.150 C 197.057 67.067,196.658 66.653,196.091 66.228 C 195.233 65.587,195.102 65.567,195.309 66.108 C 195.482 66.557,195.387 66.693,195.005 66.547 C 194.700 66.429,194.556 66.058,194.686 65.720 C 194.879 65.218,194.777 65.184,194.127 65.532 C 193.511 65.862,193.333 65.831,193.333 65.396 C 193.333 65.088,193.483 64.928,193.667 65.041 C 193.850 65.155,194.000 65.057,194.000 64.824 C 194.000 64.591,193.719 64.400,193.376 64.400 C 192.984 64.400,192.864 64.215,193.053 63.900 C 193.290 63.507,193.221 63.508,192.730 63.905 C 192.221 64.317,192.013 64.298,191.604 63.805 C 191.328 63.472,191.259 63.194,191.451 63.186 C 191.914 63.167,189.915 62.031,189.400 62.020 C 189.180 62.016,189.270 62.187,189.600 62.400 C 189.961 62.633,190.010 62.790,189.724 62.794 C 189.462 62.797,189.158 62.656,189.049 62.479 C 188.940 62.302,184.929 62.108,180.136 62.047 C 175.343 61.987,171.271 61.844,171.087 61.730 C 170.734 61.512,129.094 61.324,121.200 61.505 M56.200 79.491 C 80.014 79.768,99.200 79.772,99.200 79.500 C 99.200 79.335,87.455 79.242,73.100 79.292 C 58.745 79.343,51.140 79.433,56.200 79.491 M194.620 104.893 C 194.303 105.070,193.333 105.257,192.463 105.308 C 191.593 105.358,190.964 105.535,191.064 105.700 C 191.165 105.865,190.427 106.000,189.424 106.000 C 188.421 106.000,187.600 106.180,187.600 106.400 C 187.600 106.620,186.970 106.800,186.200 106.800 C 185.430 106.800,184.800 106.980,184.800 107.200 C 184.800 107.420,184.440 107.600,184.000 107.600 C 183.560 107.600,183.200 107.780,183.200 108.000 C 183.200 108.220,182.958 108.400,182.661 108.400 C 181.942 108.400,179.475 109.627,179.106 110.169 C 178.944 110.406,178.809 110.456,178.806 110.280 C 178.798 109.867,176.125 111.860,174.700 113.341 C 174.095 113.970,173.600 114.336,173.600 114.155 C 173.600 113.974,173.195 114.338,172.700 114.962 C 172.205 115.587,171.035 116.915,170.100 117.913 C 169.165 118.911,168.400 119.886,168.400 120.080 C 168.400 120.275,168.040 120.820,167.600 121.292 C 167.160 121.764,166.800 122.387,166.800 122.675 C 166.800 122.964,166.620 123.200,166.400 123.200 C 166.180 123.200,166.000 123.434,166.000 123.720 C 166.000 124.456,165.059 126.393,164.700 126.397 C 164.535 126.399,164.400 126.814,164.400 127.320 C 164.400 127.826,164.251 128.411,164.070 128.620 C 163.888 128.829,163.507 129.810,163.224 130.800 C 162.941 131.790,162.558 132.960,162.374 133.400 C 161.186 136.234,161.237 152.124,162.437 153.380 C 162.637 153.589,162.800 154.253,162.800 154.856 C 162.800 155.459,162.980 156.064,163.200 156.200 C 163.420 156.336,163.600 156.851,163.600 157.344 C 163.600 157.837,163.749 158.411,163.930 158.620 C 164.112 158.829,164.501 159.765,164.794 160.700 C 165.088 161.635,165.479 162.400,165.664 162.400 C 165.849 162.400,166.000 162.670,166.000 163.000 C 166.000 163.330,166.180 163.600,166.400 163.600 C 166.620 163.600,166.800 163.960,166.800 164.400 C 166.800 164.840,166.951 165.200,167.136 165.200 C 167.320 165.200,167.670 165.636,167.913 166.169 C 168.911 168.360,175.123 174.768,177.071 175.616 C 177.770 175.921,178.255 176.312,178.148 176.485 C 178.040 176.658,178.233 176.800,178.576 176.800 C 178.919 176.800,179.200 176.980,179.200 177.200 C 179.200 177.420,179.560 177.600,180.000 177.600 C 180.440 177.600,180.800 177.780,180.800 178.000 C 180.800 178.220,181.160 178.400,181.600 178.400 C 182.040 178.400,182.400 178.580,182.400 178.800 C 182.400 179.020,182.760 179.200,183.200 179.200 C 183.640 179.200,184.003 179.425,184.006 179.700 C 184.010 180.033,184.142 180.000,184.400 179.600 C 184.613 179.270,184.792 179.180,184.797 179.400 C 184.802 179.620,185.255 180.008,185.804 180.263 C 186.558 180.613,186.738 180.613,186.542 180.263 C 186.379 179.973,186.484 179.987,186.821 180.300 C 187.118 180.575,187.785 180.800,188.304 180.800 C 188.831 180.800,189.138 180.977,189.000 181.200 C 188.864 181.420,188.928 181.600,189.143 181.600 C 189.358 181.600,189.624 181.375,189.735 181.100 C 189.896 180.700,189.943 180.700,189.968 181.100 C 189.986 181.375,190.371 181.600,190.824 181.600 C 191.277 181.600,191.549 181.440,191.428 181.245 C 191.307 181.050,191.486 180.661,191.824 180.380 C 192.357 179.938,192.413 180.013,192.246 180.935 C 192.140 181.521,192.221 182.000,192.426 182.000 C 192.632 182.000,192.813 181.595,192.828 181.100 C 192.853 180.318,192.894 180.295,193.144 180.930 C 193.302 181.331,193.604 181.661,193.816 181.664 C 194.027 181.666,194.425 181.855,194.700 182.083 C 195.049 182.373,195.200 182.363,195.200 182.049 C 195.200 181.663,194.753 181.466,194.000 181.519 C 193.316 181.568,193.952 173.826,194.653 173.562 C 195.199 173.357,195.065 173.287,194.158 173.300 C 193.474 173.310,192.682 173.174,192.396 172.997 C 192.085 172.805,191.974 172.835,192.121 173.072 C 192.255 173.289,192.113 173.467,191.805 173.467 C 191.497 173.467,191.279 173.276,191.322 173.043 C 191.365 172.810,190.992 172.557,190.494 172.481 C 189.996 172.405,189.691 172.176,189.818 171.971 C 189.944 171.767,189.497 171.600,188.824 171.600 C 188.151 171.600,187.600 171.409,187.600 171.176 C 187.600 170.943,187.435 170.855,187.232 170.980 C 187.030 171.105,186.601 170.944,186.280 170.623 C 185.958 170.301,185.588 170.145,185.457 170.276 C 185.326 170.407,185.105 170.219,184.967 169.857 C 184.828 169.496,184.498 169.200,184.233 169.200 C 183.968 169.200,183.396 168.885,182.962 168.500 C 182.527 168.115,181.368 167.181,180.386 166.423 C 179.404 165.666,178.330 164.700,178.000 164.276 C 177.670 163.852,177.085 163.166,176.700 162.753 C 176.315 162.339,176.000 161.835,176.000 161.633 C 176.000 161.432,175.852 161.207,175.670 161.133 C 175.213 160.949,172.666 155.390,172.035 153.200 C 171.750 152.210,171.355 150.987,171.158 150.481 C 170.660 149.203,170.697 136.911,171.200 136.600 C 171.420 136.464,171.600 135.834,171.600 135.200 C 171.600 134.566,171.780 133.936,172.000 133.800 C 172.220 133.664,172.400 133.237,172.400 132.851 C 172.400 132.465,172.850 131.217,173.400 130.077 C 173.950 128.937,174.400 127.773,174.400 127.490 C 174.400 127.208,174.760 126.717,175.200 126.400 C 175.640 126.083,176.000 125.608,176.000 125.345 C 176.000 125.083,176.749 124.177,177.664 123.334 C 178.580 122.490,179.883 121.215,180.562 120.500 C 181.240 119.785,182.021 119.200,182.297 119.200 C 182.574 119.200,182.800 119.020,182.800 118.800 C 182.800 118.580,182.993 118.400,183.229 118.400 C 183.464 118.400,183.929 118.128,184.261 117.796 C 184.593 117.464,185.030 117.295,185.232 117.420 C 185.435 117.545,185.600 117.457,185.600 117.224 C 185.600 116.991,185.870 116.800,186.200 116.800 C 186.530 116.800,186.800 116.620,186.800 116.400 C 186.800 116.180,187.295 115.997,187.900 115.994 C 188.757 115.989,188.868 115.902,188.400 115.600 C 187.815 115.222,188.589 115.020,190.330 115.098 C 190.621 115.110,191.183 114.589,191.579 113.939 C 192.154 112.992,192.347 112.885,192.544 113.399 C 192.706 113.819,192.633 113.944,192.334 113.759 C 192.076 113.600,191.985 113.652,192.125 113.879 C 192.475 114.445,194.500 114.304,194.700 113.700 C 194.792 113.425,194.627 113.200,194.333 113.201 C 193.922 113.202,193.830 112.467,193.930 110.001 C 194.058 106.878,193.959 106.602,192.767 106.730 C 192.638 106.744,192.533 106.503,192.533 106.193 C 192.533 105.813,192.896 105.673,193.657 105.762 C 194.275 105.834,194.685 105.737,194.567 105.546 C 194.449 105.356,194.678 105.197,195.076 105.194 C 195.474 105.191,196.068 105.018,196.395 104.812 C 197.159 104.329,195.492 104.405,194.620 104.893 M193.100 191.465 C 193.375 191.576,193.600 191.851,193.600 192.076 C 193.600 192.301,193.335 192.384,193.011 192.259 C 192.686 192.135,192.223 192.341,191.980 192.717 C 191.569 193.354,191.554 193.353,191.757 192.700 C 191.944 192.098,191.696 192.000,189.987 192.000 C 188.894 192.000,188.000 192.164,188.000 192.365 C 188.000 192.565,187.696 192.685,187.324 192.630 C 185.779 192.403,175.993 195.115,175.020 196.039 C 174.811 196.238,174.215 196.400,173.696 196.400 C 173.169 196.400,172.862 196.577,173.000 196.800 C 173.140 197.026,172.812 197.200,172.247 197.200 C 171.697 197.200,171.136 197.380,171.000 197.600 C 170.864 197.820,170.418 198.000,170.010 198.000 C 169.601 198.000,169.207 198.135,169.133 198.300 C 169.060 198.465,167.830 199.212,166.400 199.960 C 164.970 200.707,162.742 202.057,161.449 202.960 C 160.156 203.862,158.808 204.780,158.454 205.000 C 158.101 205.220,157.539 205.679,157.206 206.019 C 156.873 206.359,155.970 207.078,155.200 207.616 C 152.358 209.602,146.355 215.572,144.606 218.151 C 144.028 219.005,143.306 219.951,143.003 220.254 C 142.700 220.557,142.338 221.164,142.199 221.602 C 142.060 222.041,141.778 222.400,141.573 222.400 C 141.368 222.400,141.200 222.636,141.200 222.925 C 141.200 223.213,140.885 223.798,140.499 224.225 C 140.114 224.651,139.349 225.900,138.799 227.000 C 138.250 228.100,137.665 229.060,137.500 229.133 C 137.335 229.207,137.200 229.486,137.200 229.754 C 137.200 230.463,136.251 232.393,135.900 232.397 C 135.735 232.399,135.600 232.749,135.600 233.176 C 135.600 233.603,135.420 234.064,135.200 234.200 C 134.980 234.336,134.800 234.876,134.800 235.400 C 134.800 235.924,134.620 236.464,134.400 236.600 C 134.180 236.736,134.000 237.287,134.000 237.824 C 134.000 238.361,133.858 238.800,133.685 238.800 C 133.512 238.800,133.327 239.360,133.275 240.045 C 133.223 240.729,133.005 241.617,132.790 242.018 C 132.576 242.419,132.400 243.289,132.400 243.950 C 132.400 244.612,132.220 245.264,132.000 245.400 C 131.780 245.536,131.600 246.796,131.600 248.200 C 131.600 249.604,131.439 250.852,131.243 250.973 C 131.047 251.095,130.859 253.283,130.827 255.836 C 130.760 261.046,131.175 262.543,132.900 263.307 C 133.505 263.576,134.000 263.934,134.000 264.104 C 134.000 264.273,148.265 264.372,165.700 264.324 C 183.135 264.275,195.960 264.125,194.200 263.991 L 191.000 263.747 194.000 263.613 C 196.480 263.503,196.723 263.438,195.400 263.240 L 193.800 263.000 193.800 259.500 L 193.800 255.999 195.300 256.000 C 196.125 256.000,196.800 255.820,196.800 255.600 C 196.800 255.337,187.114 255.200,168.542 255.200 L 140.285 255.200 140.554 252.100 C 140.702 250.395,140.900 248.550,140.994 248.000 C 141.088 247.450,141.286 246.051,141.434 244.892 C 141.582 243.732,141.860 242.686,142.052 242.568 C 142.243 242.450,142.400 241.823,142.400 241.176 C 142.400 240.529,142.580 240.000,142.800 240.000 C 143.020 240.000,143.200 239.651,143.200 239.224 C 143.200 238.797,143.380 238.336,143.600 238.200 C 143.820 238.064,144.000 237.603,144.000 237.176 C 144.000 236.749,144.180 236.400,144.400 236.400 C 144.620 236.400,144.800 236.147,144.800 235.838 C 144.800 235.172,146.468 231.859,146.900 231.667 C 147.065 231.593,147.200 231.271,147.200 230.950 C 147.200 230.629,147.560 229.980,148.000 229.508 C 148.440 229.036,148.800 228.413,148.800 228.125 C 148.800 227.836,148.968 227.600,149.173 227.600 C 149.378 227.600,149.657 227.249,149.794 226.820 C 149.930 226.392,150.527 225.511,151.120 224.863 C 151.714 224.215,152.765 222.991,153.456 222.142 C 155.461 219.681,160.775 214.400,161.247 214.400 C 161.485 214.400,162.183 213.860,162.800 213.200 C 163.417 212.540,164.143 212.000,164.414 212.000 C 164.684 212.000,165.197 211.671,165.553 211.270 C 165.909 210.868,166.785 210.284,167.500 209.972 C 168.215 209.660,168.800 209.269,168.800 209.102 C 168.800 208.936,169.070 208.800,169.400 208.800 C 169.730 208.800,170.000 208.620,170.000 208.400 C 170.000 208.180,170.360 208.000,170.800 208.000 C 171.240 208.000,171.600 207.820,171.600 207.600 C 171.600 207.380,171.790 207.200,172.022 207.200 C 172.255 207.200,173.560 206.647,174.922 205.971 C 176.285 205.295,177.443 204.750,177.496 204.760 C 177.705 204.800,179.039 204.321,179.695 203.971 C 180.077 203.767,180.737 203.600,181.161 203.600 C 181.586 203.600,181.993 203.422,182.067 203.203 C 182.140 202.985,182.740 202.731,183.400 202.638 C 184.060 202.546,185.590 202.202,186.800 201.874 C 188.010 201.546,189.687 201.188,190.526 201.079 C 191.366 200.970,192.176 200.744,192.326 200.577 C 192.477 200.409,192.276 200.389,191.879 200.532 C 191.462 200.682,191.258 200.629,191.395 200.408 C 191.526 200.197,192.525 200.089,193.616 200.167 C 194.761 200.250,195.600 200.142,195.600 199.912 C 195.600 199.693,195.336 199.616,195.013 199.740 C 194.690 199.864,194.324 199.801,194.200 199.600 C 194.076 199.399,193.665 199.331,193.287 199.448 C 192.657 199.643,192.658 199.623,193.300 199.210 C 193.886 198.834,194.000 198.142,194.000 194.980 C 194.000 191.635,193.920 191.204,193.300 191.232 C 192.882 191.250,192.801 191.344,193.100 191.465 M198.138 200.100 C 198.036 200.265,198.583 200.400,199.353 200.400 C 200.123 200.400,200.836 200.265,200.938 200.100 C 201.040 199.935,200.494 199.800,199.724 199.800 C 198.954 199.800,198.240 199.935,198.138 200.100 M113.424 273.813 C 112.730 274.337,112.721 274.400,113.339 274.400 C 114.512 274.400,114.231 281.092,113.049 281.324 C 112.582 281.416,114.855 281.516,118.100 281.546 L 124.000 281.600 124.000 293.377 L 124.000 305.155 119.700 305.138 C 116.906 305.128,115.297 304.961,115.106 304.661 C 114.892 304.325,114.811 304.335,114.806 304.700 C 114.803 304.975,114.395 305.214,113.900 305.232 C 113.405 305.249,113.225 305.354,113.500 305.465 C 114.537 305.883,114.162 312.793,113.100 312.840 C 112.237 312.878,112.241 312.893,113.200 313.200 C 113.750 313.376,132.470 313.509,154.800 313.495 C 177.130 313.481,194.410 313.348,193.200 313.200 C 191.375 312.976,191.256 312.919,192.500 312.865 L 194.000 312.800 194.000 309.800 C 194.000 307.798,193.846 306.800,193.538 306.800 C 193.276 306.800,193.389 306.454,193.800 306.000 C 194.523 305.201,194.499 305.200,163.462 305.200 L 132.400 305.200 132.400 293.424 L 132.400 281.647 161.815 281.524 C 183.421 281.433,191.305 281.278,191.515 280.940 C 191.672 280.688,192.250 280.418,192.800 280.340 C 193.748 280.207,193.806 280.050,193.917 277.326 C 194.011 275.015,194.168 274.417,194.717 274.272 C 195.183 274.150,195.082 274.065,194.400 274.007 L 193.400 273.920 194.400 273.600 C 194.950 273.424,177.130 273.268,154.800 273.253 C 119.692 273.229,114.095 273.305,113.424 273.813 M114.800 318.800 C 112.270 318.932,110.650 319.079,111.200 319.126 C 114.052 319.369,114.040 319.349,113.914 323.350 L 113.800 327.000 111.800 327.237 C 110.700 327.368,112.995 327.503,116.900 327.537 L 124.000 327.600 124.000 338.829 C 124.000 350.472,123.801 351.894,122.303 350.926 C 121.562 350.446,111.733 350.515,111.733 351.000 C 111.733 351.220,112.152 351.426,112.664 351.458 C 113.265 351.495,113.498 351.353,113.321 351.058 C 113.121 350.724,113.203 350.726,113.623 351.064 C 114.064 351.420,114.170 352.332,114.071 354.944 L 113.942 358.360 112.071 358.678 C 110.488 358.948,111.001 359.036,115.400 359.253 C 121.691 359.563,195.021 359.688,194.722 359.389 C 194.606 359.272,193.721 359.022,192.755 358.832 L 191.000 358.488 192.500 358.444 L 194.000 358.400 194.000 355.200 L 194.000 352.000 192.700 351.947 L 191.400 351.895 192.800 351.600 C 193.827 351.384,193.081 351.267,190.000 351.160 C 187.690 351.081,192.190 350.918,200.000 350.800 C 208.828 350.666,198.728 350.550,173.300 350.492 L 132.400 350.400 132.400 339.000 L 132.400 327.600 165.900 327.546 C 184.325 327.516,199.040 327.435,198.600 327.367 C 198.160 327.300,196.745 327.129,195.454 326.987 C 193.731 326.799,193.227 326.613,193.554 326.286 C 193.800 326.040,194.000 324.541,194.000 322.953 C 194.000 321.018,194.165 320.000,194.500 319.865 C 194.775 319.754,193.830 319.628,192.400 319.585 C 188.340 319.463,190.374 319.205,198.210 318.848 C 202.832 318.638,190.044 318.528,162.400 318.540 C 138.750 318.551,117.330 318.668,114.800 318.800 M113.670 379.831 C 113.521 380.079,113.130 380.400,112.800 380.544 C 112.470 380.687,112.650 380.721,113.200 380.619 L 114.200 380.434 114.000 383.980 C 113.890 385.930,113.935 387.442,114.100 387.339 C 114.265 387.237,114.400 387.365,114.400 387.625 C 114.400 387.959,114.599 387.936,115.077 387.549 C 115.537 387.176,115.657 387.160,115.453 387.500 C 115.262 387.818,115.389 388.000,115.800 388.000 C 116.156 388.000,116.336 387.820,116.200 387.600 C 116.064 387.380,116.116 387.200,116.315 387.200 C 116.515 387.200,117.093 386.840,117.600 386.400 C 118.107 385.960,118.304 385.600,118.038 385.600 C 117.745 385.600,117.680 385.402,117.875 385.100 C 118.472 384.173,118.365 381.600,117.729 381.600 C 117.337 381.600,117.226 381.349,117.389 380.833 C 117.587 380.212,117.478 380.107,116.816 380.280 C 116.245 380.429,116.000 380.301,116.000 379.851 C 116.000 379.106,114.112 379.090,113.670 379.831 M125.875 380.322 C 124.386 381.876,124.344 385.254,125.794 386.901 L 126.764 388.002 160.495 387.995 L 194.226 387.989 194.100 385.094 C 193.878 379.992,193.786 379.736,192.091 379.455 C 191.271 379.320,176.279 379.207,158.775 379.204 L 126.950 379.200 125.875 380.322 " stroke="none" fill="#3c77fc" fill-rule="evenodd"></path></g></svg>